<mxfile host="Electron" agent="Mozilla/5.0 (Windows NT 10.0; Win64; x64) AppleWebKit/537.36 (KHTML, like Gecko) draw.io/24.7.17 Chrome/128.0.6613.36 Electron/32.0.1 Safari/537.36" version="24.7.17">
  <diagram name="Page-1" id="gvStBfVVaUEVsNAgLjva">
    <mxGraphModel dx="1050" dy="621" grid="1" gridSize="10" guides="1" tooltips="1" connect="1" arrows="1" fold="1" page="1" pageScale="1" pageWidth="827" pageHeight="1169" math="0" shadow="0">
      <root>
        <mxCell id="0" />
        <mxCell id="1" parent="0" />
        <mxCell id="HWJQXWsurzXRYkpssPl9-8" style="edgeStyle=orthogonalEdgeStyle;rounded=0;orthogonalLoop=1;jettySize=auto;html=1;entryX=0.5;entryY=0;entryDx=0;entryDy=0;" edge="1" parent="1" source="HWJQXWsurzXRYkpssPl9-1" target="HWJQXWsurzXRYkpssPl9-5">
          <mxGeometry relative="1" as="geometry" />
        </mxCell>
        <mxCell id="HWJQXWsurzXRYkpssPl9-9" style="edgeStyle=orthogonalEdgeStyle;rounded=0;orthogonalLoop=1;jettySize=auto;html=1;entryX=0.5;entryY=0;entryDx=0;entryDy=0;" edge="1" parent="1" source="HWJQXWsurzXRYkpssPl9-1" target="HWJQXWsurzXRYkpssPl9-6">
          <mxGeometry relative="1" as="geometry" />
        </mxCell>
        <mxCell id="HWJQXWsurzXRYkpssPl9-10" style="edgeStyle=orthogonalEdgeStyle;rounded=0;orthogonalLoop=1;jettySize=auto;html=1;entryX=0.5;entryY=0;entryDx=0;entryDy=0;" edge="1" parent="1" source="HWJQXWsurzXRYkpssPl9-1" target="HWJQXWsurzXRYkpssPl9-4">
          <mxGeometry relative="1" as="geometry">
            <Array as="points">
              <mxPoint x="414" y="190" />
              <mxPoint x="210" y="190" />
            </Array>
          </mxGeometry>
        </mxCell>
        <mxCell id="HWJQXWsurzXRYkpssPl9-11" style="edgeStyle=orthogonalEdgeStyle;rounded=0;orthogonalLoop=1;jettySize=auto;html=1;entryX=0.5;entryY=0;entryDx=0;entryDy=0;" edge="1" parent="1" source="HWJQXWsurzXRYkpssPl9-1" target="HWJQXWsurzXRYkpssPl9-2">
          <mxGeometry relative="1" as="geometry">
            <Array as="points">
              <mxPoint x="414" y="190" />
              <mxPoint x="70" y="190" />
            </Array>
          </mxGeometry>
        </mxCell>
        <mxCell id="HWJQXWsurzXRYkpssPl9-12" style="edgeStyle=orthogonalEdgeStyle;rounded=0;orthogonalLoop=1;jettySize=auto;html=1;entryX=0.5;entryY=0;entryDx=0;entryDy=0;" edge="1" parent="1" source="HWJQXWsurzXRYkpssPl9-1" target="HWJQXWsurzXRYkpssPl9-7">
          <mxGeometry relative="1" as="geometry">
            <Array as="points">
              <mxPoint x="414" y="190" />
              <mxPoint x="630" y="190" />
            </Array>
          </mxGeometry>
        </mxCell>
        <mxCell id="HWJQXWsurzXRYkpssPl9-13" style="edgeStyle=orthogonalEdgeStyle;rounded=0;orthogonalLoop=1;jettySize=auto;html=1;entryX=0.5;entryY=0;entryDx=0;entryDy=0;" edge="1" parent="1" source="HWJQXWsurzXRYkpssPl9-1" target="HWJQXWsurzXRYkpssPl9-3">
          <mxGeometry relative="1" as="geometry">
            <Array as="points">
              <mxPoint x="414" y="190" />
              <mxPoint x="770" y="190" />
            </Array>
          </mxGeometry>
        </mxCell>
        <mxCell id="HWJQXWsurzXRYkpssPl9-1" value="Direction" style="rounded=0;whiteSpace=wrap;html=1;" vertex="1" parent="1">
          <mxGeometry x="354" y="80" width="120" height="60" as="geometry" />
        </mxCell>
        <mxCell id="HWJQXWsurzXRYkpssPl9-2" value="RH" style="rounded=0;whiteSpace=wrap;html=1;" vertex="1" parent="1">
          <mxGeometry x="20" y="240" width="100" height="50" as="geometry" />
        </mxCell>
        <mxCell id="HWJQXWsurzXRYkpssPl9-3" value="Fianance" style="rounded=0;whiteSpace=wrap;html=1;" vertex="1" parent="1">
          <mxGeometry x="720" y="240" width="100" height="50" as="geometry" />
        </mxCell>
        <mxCell id="HWJQXWsurzXRYkpssPl9-4" value="Administration" style="rounded=0;whiteSpace=wrap;html=1;" vertex="1" parent="1">
          <mxGeometry x="160" y="240" width="100" height="50" as="geometry" />
        </mxCell>
        <mxCell id="HWJQXWsurzXRYkpssPl9-5" value="Marketing" style="rounded=0;whiteSpace=wrap;html=1;" vertex="1" parent="1">
          <mxGeometry x="440" y="240" width="100" height="50" as="geometry" />
        </mxCell>
        <mxCell id="HWJQXWsurzXRYkpssPl9-6" value="Recherche et Developpement" style="rounded=0;whiteSpace=wrap;html=1;" vertex="1" parent="1">
          <mxGeometry x="300" y="240" width="100" height="50" as="geometry" />
        </mxCell>
        <mxCell id="HWJQXWsurzXRYkpssPl9-7" value="Juridique" style="rounded=0;whiteSpace=wrap;html=1;" vertex="1" parent="1">
          <mxGeometry x="580" y="240" width="100" height="50" as="geometry" />
        </mxCell>
        <mxCell id="HWJQXWsurzXRYkpssPl9-15" value="&lt;font color=&quot;#67ab9f&quot; style=&quot;font-size: 17px;&quot;&gt;&lt;b&gt;Organigramme des dÃ©partements de l&#39;entreprise Kolatech&lt;/b&gt;&lt;/font&gt;" style="text;html=1;align=center;verticalAlign=middle;whiteSpace=wrap;rounded=0;" vertex="1" parent="1">
          <mxGeometry x="193" width="441" height="70" as="geometry" />
        </mxCell>
      </root>
    </mxGraphModel>
  </diagram>
</mxfile>
